<svg width="25" height="20" xmlns="http://www.w3.org/2000/svg">

 <g>
  <title>Layer 1</title>
  <path id="imagebot_2" stroke-miterlimit="20" stroke-width="0.25" stroke="rgb(255, 255, 255)" fill="rgb(255, 255, 255)" d="M 24.225000000000023 2.82501220703125 L 0.8249999999999886 2.82501220703125 C 0.42500000000001137 2.82501220703125 0.125 2.5250122070312386 0.125 2.1250122070312614 L 0.125 0.82501220703125 C 0.125 0.42501220703127274 0.42500000000001137 0.12501220703126137 0.8249999999999886 0.12501220703126137 L 24.225000000000023 0.12501220703126137 C 24.625 0.12501220703126137 24.92500000000001 0.42501220703127274 24.92500000000001 0.82501220703125 L 24.92500000000001 2.0250122070312386 C 25.024999999999977 2.4250122070312727 24.625 2.82501220703125 24.225000000000023 2.82501220703125 z"/>
 </g>
 <g>
  <title>Layer 2</title>
  <path id="imagebot_3" stroke-miterlimit="20" stroke-width="0.25" stroke="rgb(255, 255, 255)" fill="rgb(255, 255, 255)" d="M 24.225000000000023 11.525012207031239 L 0.8249999999999886 11.525012207031239 C 0.42500000000001137 11.525012207031239 0.125 11.225012207031227 0.125 10.82501220703125 L 0.125 9.625012207031261 C 0.125 9.225012207031227 0.42500000000001137 8.925012207031273 0.8249999999999886 8.925012207031273 L 24.225000000000023 8.925012207031273 C 24.625 8.925012207031273 24.92500000000001 9.225012207031227 24.92500000000001 9.625012207031261 L 24.92500000000001 10.82501220703125 C 25.024999999999977 11.225012207031227 24.625 11.525012207031239 24.225000000000023 11.525012207031239 z"/>
 </g>
 <g>
  <title>Layer 3</title>
  <path id="imagebot_4" stroke-miterlimit="20" stroke-width="0.25" stroke="rgb(255, 255, 255)" fill="rgb(255, 255, 255)" d="M 24.225000000000023 19.52501220703124 L 0.8249999999999886 19.52501220703124 C 0.42500000000001137 19.52501220703124 0.125 19.225012207031227 0.125 18.82501220703125 L 0.125 17.62501220703126 C 0.125 17.225012207031227 0.42500000000001137 16.925012207031273 0.8249999999999886 16.925012207031273 L 24.225000000000023 16.925012207031273 C 24.625 16.925012207031273 24.92500000000001 17.225012207031227 24.92500000000001 17.62501220703126 L 24.92500000000001 18.82501220703125 C 25.024999999999977 19.12501220703126 24.625 19.52501220703124 24.225000000000023 19.52501220703124 z"/>
 </g>
</svg>