<?xml version="1.0" encoding="utf-8"?>
<!-- Generator: Adobe Illustrator 19.1.0, SVG Export Plug-In . SVG Version: 6.00 Build 0)  -->
<svg version="1.1" id="facebook" xmlns="http://www.w3.org/2000/svg" xmlns:xlink="http://www.w3.org/1999/xlink" x="0px" y="0px"
	 viewBox="0 0 74 74" enable-background="new 0 0 74 74" xml:space="preserve">
<g>
	<path fill="none" stroke="#FFFFFF" stroke-width="1.5" stroke-miterlimit="10" d="M38.486,19.829C36.243,25.487,37,36,37,36h-9.984
		v8h10.909v28.424H37H9.184c-4.478,0-8.109-3.63-8.109-8.109V9.684c0-4.478,3.63-8.109,8.109-8.109h55.632
		c4.478,0,8.109,3.63,8.109,8.109v54.631c0,4.478-3.63,8.109-8.109,8.109H44.997V44.072h9.983l5.007-8.056h-14.96
		c0,0,0-1.016,0-6.708c0-5.255,2.847-10.46,12.043-10.46c7.605,0,7.596,0,7.596,0V10c0,0-0.873,0-12.573,0
		C43.162,10,38.486,19.829,38.486,19.829z"/>
</g>
</svg>
