<?xml version="1.0" encoding="utf-8"?>
<!-- Generator: Adobe Illustrator 19.1.0, SVG Export Plug-In . SVG Version: 6.00 Build 0)  -->
<svg version="1.1" id="Layer_1" xmlns="http://www.w3.org/2000/svg" xmlns:xlink="http://www.w3.org/1999/xlink" x="0px" y="0px"
	 viewBox="66 -123 146 261" style="enable-background:new 66 -123 146 261;" xml:space="preserve">
<style type="text/css">
	.st0{fill:none;stroke:#AF9051;stroke-width:3;stroke-miterlimit:10;}
	.st1{fill:#939393;}
	.st2{fill:#B09151;}
	.st3{enable-background:new    ;}
	.st4{fill:#FFFFFF;}
</style>
<g id="Layer_2">
	<g>
		<polyline class="st0" points="125,-53.5 69.3,-53.5 111.7,29.2 		"/>
		<polyline class="st0" points="124.1,51.7 139.8,82.6 209,-53.5 171,-53.5 		"/>
	</g>
</g>
<g id="Layer_1_1_">
	<g>
		<g>
			<path class="st1" d="M136.2-96.5c0.2-0.4,0.5-0.7,0.8-1c1.1-0.8,2.3-0.3,3.3,0.2c2.1,1,4.2,2.2,6.3,3.3c1.2,0.6,2.4,1.1,4,1.8
				c-1.7-1.7-4.1-4.6-3.9-4.8c0.5,0.1,0.9,0.2,1.4,0.3c2.3,0.4,2.9,0,3.7-2.8c0.5-1.9,1.1-3.8,1.6-5.7c0.6-2.6,1.1-5.1,1.5-7.7
				c0.3-1.7,0.6-2.9-1.3-3.2c-2.1-0.3-3.9-0.3-5.9-0.2c6.8-1.6,13.5-0.6,18.2,2.5c1.9,1.2,1.9,1.9,0.6,4.3c-3.2,5.5-3.8,11.6-5,18.2
				c2.6-0.5,3.6-0.9,5.2-2c1.7-1.1,2,1,0.5,1.8c-1.1,0.5-2.2,0.9-3.3,1.1c-6.3,1.2-12.3,0.5-17.8-2c-1.9-0.8-3.8-1.7-5.8-2.3
				c-2.2-0.7-2.5-0.2-2.4,2.4c0,0-1-1-1.2-1.2c-0.3-0.4-0.6-0.9-0.7-1.4C135.8-95.4,135.9-96,136.2-96.5z"/>
			<path class="st1" d="M157.7-72.4c8.6,8.4,17.6,12.9,17.6,12.9l-5.9,3.4l7.3,1.5c-1.4,7.5-2.7,15-3.9,22.5
				c-1.1,7.1-2.7,14.5-3.1,21.7c0.1-6.7,0.2-13.4-0.5-20.1C167.9-45.1,162.3-58.4,157.7-72.4C157.7-72.4,157.7-72.4,157.7-72.4z"/>
			<path class="st1" d="M136.4-70.8l-7.4,9l13.2,3l-14.1,0.4l7.5,14.7c3.8,7,7.9,13.7,11.5,20.7c5.2,9.8,7.9,19.3,7.9,30.6
				c0,9.7-1.9,5.6-15,3.4c-4.8-0.8-19,63.8-19,63.8c0-23.8,0-23.8,2-48.2c-4.5,0.1-9,1.5-12.9,3.8c-1.8-9.4-2.5-42-1.5-48.7
				c1.7-11.1,3.5-22.2,5.3-33.3c0.4-2.7,0.3-6.4,2.7-7.7c3.8-2.1,8.2-2.8,12.1-4.5C131-64.8,135-69,136.4-70.8z M121.2,10
				c2.3-8.2,5-16.2,4.7-24.8c-0.1-2.1-0.3-4.1-0.8-6.1c-0.3-1.1-1.2-2.9-1-4c-0.7,4.8-1.4,9.7-2.4,14.5c-0.8,4.2-0.6,8.7-0.6,12.9
				C121.2,4.7,121.8,7.9,121.2,10z"/>
			<polygon class="st1" points="153.5,-67.1 157.5,-68.7 158,-63.8 153.4,-65 152,-64.8 146.8,-62.7 146.1,-67.9 152,-66.8 			"/>
			<path class="st1" d="M121.2,33.7c0.3-2-1-3.8-2.9-4.1c-1.9-0.3-3.7,1.1-4,3.1c-0.2,1.3,0.3,2.6,1.2,3.4l-14.4,95.7l1.7,0.3
				l16-95.4C120.1,36.1,121,35.1,121.2,33.7z"/>
		</g>
	</g>
	<g>
		<g>
			<path class="st2" d="M136.2-96.5c0.2-0.4,0.5-0.7,0.8-1c1.1-0.8,2.3-0.3,3.3,0.2c2.1,1,4.2,2.2,6.3,3.3c1.2,0.6,2.4,1.1,4,1.8
				c-1.7-1.7-4.1-4.6-3.9-4.8c0.5,0.1,0.9,0.2,1.4,0.3c2.3,0.4,2.9,0,3.7-2.8c0.5-1.9,1.1-3.8,1.6-5.7c0.6-2.6,1.1-5.1,1.5-7.7
				c0.3-1.7,0.6-2.9-1.3-3.2c-2.1-0.3-3.9-0.3-5.9-0.2c6.8-1.6,13.5-0.6,18.2,2.5c1.9,1.2,1.9,1.9,0.6,4.3c-3.2,5.5-3.8,11.6-5,18.2
				c2.6-0.5,3.6-0.9,5.2-2c1.7-1.1,2,1,0.5,1.8c-1.1,0.5-2.2,0.9-3.3,1.1c-6.3,1.2-12.3,0.5-17.8-2c-1.9-0.8-3.8-1.7-5.8-2.3
				c-2.2-0.7-2.5-0.2-2.4,2.4c0,0-1-1-1.2-1.2c-0.3-0.4-0.6-0.9-0.7-1.4C135.8-95.4,135.9-96,136.2-96.5z"/>
			<path class="st2" d="M157.7-72.4c8.6,8.4,17.6,12.9,17.6,12.9l-5.9,3.4l7.3,1.5c-1.4,7.5-2.7,15-3.9,22.5
				c-1.1,7.1-2.7,14.5-3.1,21.7c0.1-6.7,0.2-13.4-0.5-20.1C167.9-45.1,162.3-58.4,157.7-72.4C157.7-72.4,157.7-72.4,157.7-72.4z"/>
			<path class="st2" d="M136.4-70.8l-7.4,9l13.2,3l-14.1,0.4l7.5,14.7c3.8,7,7.9,13.7,11.5,20.7c5.2,9.8,7.9,19.3,7.9,30.6
				c0,9.7-1.9,5.6-15,3.4c-4.8-0.8-19,63.8-19,63.8c0-23.8,0-23.8,2-48.2c-4.5,0.1-9,1.5-12.9,3.8c-1.8-9.4-2.5-42-1.5-48.7
				c1.7-11.1,3.5-22.2,5.3-33.3c0.4-2.7,0.3-6.4,2.7-7.7c3.8-2.1,8.2-2.8,12.1-4.5C131-64.8,135-69,136.4-70.8z M121.2,10
				c2.3-8.2,5-16.2,4.7-24.8c-0.1-2.1-0.3-4.1-0.8-6.1c-0.3-1.1-1.2-2.9-1-4c-0.7,4.8-1.4,9.7-2.4,14.5c-0.8,4.2-0.6,8.7-0.6,12.9
				C121.2,4.7,121.8,7.9,121.2,10z"/>
			<polygon class="st2" points="153.5,-67.1 157.5,-68.7 158,-63.8 153.4,-65 152,-64.8 146.8,-62.7 146.1,-67.9 152,-66.8 			"/>
			<path class="st2" d="M121.2,33.7c0.3-2-1-3.8-2.9-4.1c-1.9-0.3-3.7,1.1-4,3.1c-0.2,1.3,0.3,2.6,1.2,3.4l-14.4,95.7l1.7,0.3
				l16-95.4C120.1,36.1,121,35.1,121.2,33.7z"/>
		</g>
	</g>
</g>
<g id="Layer_3">
	<g class="st3">
		<path class="st4" d="M72-9.1l6.2-14.5H81l6.2,14.5H84l-1.4-3.3h-6.1l-1.4,3.3H72z M77.4-14.9h4.2l-2.1-5L77.4-14.9z"/>
	</g>
	<g class="st3">
		<path class="st4" d="M89.2-9.1v-14.4h6.7c1.5,0,2.7,0.4,3.6,1.2c0.9,0.8,1.3,1.8,1.3,3.1c0,1.9-1.1,3.4-3,4l4.4,6.1h-3.4l-4.2-5.8
			h-2.5v5.8H89.2z M92.2-17.4h3.5c1.3,0,2.1-0.6,2.1-1.7c0-1.1-0.8-1.7-2.1-1.7h-3.5V-17.4z"/>
	</g>
	<g class="st3">
		<path class="st4" d="M104.3-9.1v-14.4h2.9v14.4H104.3z"/>
	</g>
	<g class="st3">
		<path class="st4" d="M109.5-10.4v-3.1c0.6,0.5,1.4,1,2.4,1.4c1,0.4,2,0.6,3,0.6c1.6,0,2.8-0.6,2.8-1.7c0-0.5-0.2-1-0.7-1.2
			c-0.3-0.2-0.4-0.2-0.8-0.4l-0.5-0.2l-1.2-0.3l-1.1-0.3c-0.2-0.1-0.5-0.2-1-0.3c-0.4-0.2-0.7-0.3-0.9-0.4c-0.4-0.3-1.1-0.8-1.4-1.3
			c-0.2-0.5-0.5-1.2-0.5-2c0-1.3,0.5-2.3,1.5-3c1-0.7,2.3-1.1,4-1.1c1.7,0,3.2,0.4,4.7,1.2v2.9c-1.5-0.9-3-1.4-4.7-1.4
			c-1.6,0-2.4,0.5-2.4,1.4c0,0.5,0.3,0.8,0.8,1c0.3,0.1,0.8,0.3,1.2,0.4c0.4,0.1,1.1,0.3,1.6,0.5c1.4,0.4,2.2,0.8,3.1,1.5
			c1,0.7,1.4,1.7,1.4,3c0,1.4-0.5,2.5-1.6,3.3c-1.1,0.8-2.4,1.2-4.1,1.2C112.9-8.8,111-9.3,109.5-10.4z"/>
	</g>
	<g class="st3">
		<path class="st4" d="M122.3-23.5h12.1v2.7h-4.6v11.7h-3v-11.7h-4.5V-23.5z"/>
	</g>
	<g class="st3">
		<path class="st4" d="M136.9-21.6c1.4-1.5,3.2-2.2,5.3-2.2c2.1,0,3.9,0.7,5.3,2.2c1.4,1.4,2.1,3.2,2.1,5.3c0,2.1-0.7,3.8-2.1,5.3
			c-1.4,1.5-3.2,2.2-5.3,2.2c-2.1,0-3.9-0.7-5.3-2.2c-1.4-1.5-2.1-3.2-2.1-5.3C134.7-18.4,135.4-20.2,136.9-21.6z M142.2-11.6
			c1.3,0,2.3-0.5,3.2-1.3s1.3-2,1.3-3.4s-0.4-2.5-1.3-3.4s-1.9-1.3-3.2-1.3c-1.3,0-2.3,0.5-3.2,1.3s-1.3,2-1.3,3.4s0.4,2.5,1.3,3.4
			S140.9-11.6,142.2-11.6z"/>
	</g>
	<g class="st3">
		<path class="st4" d="M154-10.9c-1.5-1.4-2.2-3.2-2.2-5.4c0-2.2,0.7-4,2.2-5.4c1.5-1.4,3.4-2.1,5.6-2.1c1.4,0,2.7,0.3,3.8,0.9v3
			c-1.1-0.7-2.4-1.1-3.8-1.1c-1.4,0-2.5,0.5-3.4,1.3c-0.9,0.9-1.4,2-1.4,3.4c0,1.4,0.5,2.5,1.4,3.4c0.9,0.9,2.1,1.3,3.5,1.3
			c1.6,0,2.9-0.4,3.9-1.3v3c-1.2,0.7-2.5,1-4.1,1C157.3-8.8,155.4-9.5,154-10.9z"/>
	</g>
	<g class="st3">
		<path class="st4" d="M166.2-9.1v-14.4h6.7c1.5,0,2.7,0.4,3.6,1.2c0.9,0.8,1.3,1.8,1.3,3.1c0,1.9-1.1,3.4-3,4l4.4,6.1h-3.4
			l-4.2-5.8h-2.5v5.8H166.2z M169.2-17.4h3.5c1.3,0,2.1-0.6,2.1-1.7c0-1.1-0.8-1.7-2.1-1.7h-3.5V-17.4z"/>
	</g>
	<g class="st3">
		<path class="st4" d="M180-9.1l6.2-14.5h2.8l6.2,14.5H192l-1.4-3.3h-6.1l-1.4,3.3H180z M185.4-14.9h4.2l-2.1-5L185.4-14.9z"/>
	</g>
	<g class="st3">
		<path class="st4" d="M194.3-23.5h12.1v2.7h-4.6v11.7h-3v-11.7h-4.5V-23.5z"/>
	</g>
</g>
<g id="Layer_5">
	<g class="st3">
		<path class="st4" d="M167.1,49v-0.4l0.7-0.7c0.2-0.2,0.3-0.3,0.3-0.4c0.1-0.1,0.1-0.2,0.1-0.3c0-0.2-0.2-0.4-0.4-0.4
			c-0.2,0-0.5,0.1-0.7,0.3v-0.5c0.2-0.2,0.4-0.2,0.7-0.2c0.2,0,0.4,0.1,0.6,0.2s0.3,0.3,0.3,0.6c0,0.2,0,0.3-0.1,0.5
			c-0.1,0.1-0.2,0.3-0.4,0.5l-0.4,0.4h1V49H167.1z"/>
	</g>
	<g class="st3">
		<path class="st4" d="M172,48.8c-0.3-0.2-0.5-0.7-0.5-1.1c0-0.2,0-0.4,0.1-0.6c0.2-0.4,0.5-0.7,1-0.7c0.3,0,0.6,0.1,0.8,0.4
			c0.2,0.3,0.3,0.6,0.3,0.9s-0.1,0.7-0.3,0.9c-0.2,0.3-0.5,0.4-0.8,0.4C172.4,49,172.2,48.9,172,48.8z M172.6,48.5
			c0.2,0,0.3-0.1,0.4-0.2c0.1-0.2,0.2-0.4,0.2-0.6s-0.1-0.4-0.2-0.6c-0.1-0.2-0.2-0.2-0.4-0.2s-0.3,0.1-0.4,0.2
			c-0.1,0.2-0.2,0.4-0.2,0.6s0,0.4,0.2,0.6C172.3,48.4,172.4,48.5,172.6,48.5z"/>
	</g>
	<g class="st3">
		<path class="st4" d="M177.2,49v-2l-0.5,0.3v-0.5l0.6-0.3h0.4V49H177.2z"/>
	</g>
	<g class="st3">
		<path class="st4" d="M180.3,49l1-2h-1.2v-0.5h1.8v0.4l-1.1,2.1H180.3z"/>
	</g>
	<g class="st3">
		<path class="st4" d="M88.8,49v-2.5h1.8v0.5h-1.3v0.5h1.1v0.5h-1.1v0.6h1.4V49H88.8z"/>
	</g>
	<g class="st3">
		<path class="st4" d="M93,48.7v-0.5c0.1,0.1,0.2,0.2,0.4,0.2c0.2,0.1,0.3,0.1,0.5,0.1c0.3,0,0.5-0.1,0.5-0.3c0-0.1,0-0.2-0.1-0.2
			c0,0-0.1,0-0.1-0.1l-0.1,0l-0.2-0.1l-0.2-0.1c0,0-0.1,0-0.2-0.1c-0.1,0-0.1-0.1-0.2-0.1c-0.1,0-0.2-0.1-0.2-0.2
			c0-0.1-0.1-0.2-0.1-0.4c0-0.2,0.1-0.4,0.3-0.5c0.2-0.1,0.4-0.2,0.7-0.2c0.3,0,0.6,0.1,0.8,0.2v0.5c-0.3-0.2-0.5-0.2-0.8-0.2
			c-0.3,0-0.4,0.1-0.4,0.2c0,0.1,0,0.1,0.1,0.2c0,0,0.1,0.1,0.2,0.1c0.1,0,0.2,0.1,0.3,0.1c0.2,0.1,0.4,0.1,0.5,0.3
			c0.2,0.1,0.3,0.3,0.3,0.5c0,0.2-0.1,0.4-0.3,0.6C94.5,48.9,94.2,49,94,49C93.6,49,93.3,48.9,93,48.7z"/>
	</g>
	<g class="st3">
		<path class="st4" d="M97.3,46.4h2.1v0.5h-0.8v2h-0.5v-2h-0.8V46.4z"/>
	</g>
	<g class="st3">
		<path class="st4" d="M101.8,49v-2.5h0.9c0.4,0,0.7,0.1,1,0.4c0.3,0.2,0.4,0.5,0.4,0.9s-0.1,0.7-0.4,0.9s-0.6,0.3-1,0.3H101.8z
			 M102.3,48.5h0.4c0.6,0,0.9-0.3,0.9-0.8c0-0.5-0.3-0.8-0.9-0.8h-0.4V48.5z"/>
	</g>
</g>
<g>
	<path class="st4" d="M109.3,2v-2.8h1.4c0.5,0,0.9,0.2,0.9,0.7c0,0.3-0.2,0.5-0.3,0.5c0.1,0,0.3,0.1,0.4,0.2
		c0.1,0.1,0.2,0.3,0.2,0.5c0,0.2-0.1,0.4-0.3,0.6C111.3,2,111,2,110.7,2H109.3z M110,0.3h0.5c0.2,0,0.3-0.1,0.3-0.2
		c0-0.2-0.1-0.2-0.3-0.2H110V0.3z M110,1.4h0.6c0.2,0,0.4-0.1,0.4-0.3s-0.1-0.3-0.4-0.3H110V1.4z"/>
	<path class="st4" d="M115,2l1.2-2.8h0.7l1.2,2.8h-0.8l-0.2-0.6h-1L115.8,2H115z M116.3,0.9h0.6l-0.3-0.7L116.3,0.9z"/>
	<path class="st4" d="M121.5,2v-2.8h1.3c0.3,0,0.6,0.1,0.7,0.2c0.2,0.2,0.3,0.4,0.3,0.6c0,0.4-0.2,0.7-0.5,0.8l0.8,1.1h-0.8L122.5,1
		h-0.3V2H121.5z M122.2,0.4h0.6c0.2,0,0.3-0.1,0.3-0.3s-0.1-0.3-0.3-0.3h-0.6V0.4z"/>
	<path class="st4" d="M127.5,2v-2.8h1.4c0.5,0,0.9,0.2,0.9,0.7c0,0.3-0.2,0.5-0.3,0.5c0.1,0,0.3,0.1,0.4,0.2
		c0.1,0.1,0.2,0.3,0.2,0.5c0,0.2-0.1,0.4-0.3,0.6C129.5,2,129.3,2,129,2H127.5z M128.3,0.3h0.5c0.2,0,0.3-0.1,0.3-0.2
		c0-0.2-0.1-0.2-0.3-0.2h-0.5V0.3z M128.3,1.4h0.6c0.2,0,0.4-0.1,0.4-0.3s-0.1-0.3-0.4-0.3h-0.6V1.4z"/>
	<path class="st4" d="M133.5,2v-2.8h2.1v0.6h-1.4v0.4h1.1v0.6h-1.1v0.5h1.4V2H133.5z"/>
	<path class="st4" d="M139.2,2v-2.8h1.3c0.3,0,0.6,0.1,0.7,0.2c0.2,0.2,0.3,0.4,0.3,0.6c0,0.4-0.2,0.7-0.5,0.8l0.8,1.1H141L140.2,1
		h-0.3V2H139.2z M139.9,0.4h0.6c0.2,0,0.3-0.1,0.3-0.3s-0.1-0.3-0.3-0.3h-0.6V0.4z"/>
	<path class="st4" d="M145.1,1.8V1.1c0.1,0.1,0.3,0.2,0.5,0.3c0.2,0.1,0.4,0.1,0.6,0.1c0.3,0,0.4-0.1,0.4-0.2c0-0.1,0-0.1-0.1-0.2
		c0,0-0.1-0.1-0.2-0.1l-0.3-0.1l-0.2-0.1l-0.2-0.1c-0.1,0-0.1-0.1-0.2-0.1c-0.1-0.1-0.2-0.2-0.3-0.3c-0.1-0.1-0.1-0.2-0.1-0.4
		c0-0.5,0.4-0.8,1.1-0.8c0.3,0,0.7,0.1,0.9,0.2v0.7c-0.1-0.1-0.3-0.1-0.4-0.2s-0.3-0.1-0.5-0.1c-0.2,0-0.4,0.1-0.4,0.2
		c0,0.1,0,0.1,0.1,0.1l0.1,0c0.1,0,0.3,0.1,0.4,0.1c0.3,0.1,0.5,0.2,0.6,0.3c0.2,0.1,0.2,0.3,0.2,0.6c0,0.3-0.1,0.5-0.3,0.7
		c-0.2,0.2-0.5,0.2-0.8,0.2C145.8,2.1,145.4,2,145.1,1.8z"/>
	<path class="st4" d="M150.9,2v-2.8h0.7v1h1.1v-1h0.7V2h-0.7V0.9h-1.1V2H150.9z"/>
	<path class="st4" d="M158.4,2.1c-0.4,0-0.8-0.1-1.1-0.4c-0.3-0.3-0.4-0.6-0.4-1c0-0.4,0.1-0.7,0.4-1c0.3-0.3,0.6-0.4,1.1-0.4
		s0.8,0.1,1.1,0.4c0.3,0.3,0.4,0.6,0.4,1c0,0.4-0.1,0.7-0.4,1C159.2,2,158.9,2.1,158.4,2.1z M158.4,1.4c0.2,0,0.4-0.1,0.5-0.2
		c0.1-0.1,0.2-0.3,0.2-0.6c0-0.2-0.1-0.4-0.2-0.6c-0.1-0.1-0.3-0.2-0.5-0.2s-0.4,0.1-0.5,0.2c-0.1,0.1-0.2,0.3-0.2,0.6
		c0,0.2,0.1,0.4,0.2,0.6C158.1,1.4,158.2,1.4,158.4,1.4z"/>
	<path class="st4" d="M163.5,2v-2.8h1.2c0.3,0,0.6,0.1,0.7,0.2c0.2,0.2,0.3,0.4,0.3,0.6s-0.1,0.5-0.3,0.6C165.3,0.9,165,1,164.7,1
		h-0.5v1H163.5z M164.2,0.4h0.5c0.2,0,0.3-0.1,0.3-0.3s-0.1-0.3-0.3-0.3h-0.5V0.4z"/>
</g>
</svg>
