<svg width="25" height="24" xmlns="http://www.w3.org/2000/svg">

 <g>
  <title>Layer 1</title>
  <path id="imagebot_2" stroke-miterlimit="20" stroke-width="0.25" stroke="rgb(255, 255, 255)" fill="rgb(255, 255, 255)" d="M 24.225000000000023 2.7249877929687614 L 0.8249999999999886 2.7249877929687614 C 0.42500000000001137 2.7249877929687614 0.125 2.42498779296875 0.125 2.0249877929687727 L 0.125 0.8249877929687273 C 0.125 0.42498779296875 0.42500000000001137 0.12498779296873863 0.8249999999999886 0.12498779296873863 L 24.225000000000023 0.12498779296873863 C 24.625 0.12498779296873863 24.92500000000001 0.42498779296875 24.92500000000001 0.8249877929687273 L 24.92500000000001 2.0249877929687727 C 25.024999999999977 2.42498779296875 24.625 2.7249877929687614 24.225000000000023 2.7249877929687614 z"/>
 </g>
 <g>
  <title>Layer 2</title>
  <path id="imagebot_3" stroke-miterlimit="20" stroke-width="0.25" stroke="rgb(255, 255, 255)" fill="rgb(255, 255, 255)" d="M 24.225000000000023 13.724987792968761 L 0.8249999999999886 13.724987792968761 C 0.42500000000001137 13.724987792968761 0.125 13.42498779296875 0.125 13.024987792968773 L 0.125 11.824987792968727 C 0.125 11.42498779296875 0.42500000000001137 11.124987792968739 0.8249999999999886 11.124987792968739 L 24.225000000000023 11.124987792968739 C 24.625 11.124987792968739 24.92500000000001 11.42498779296875 24.92500000000001 11.824987792968727 L 24.92500000000001 13.024987792968773 C 25.024999999999977 13.42498779296875 24.625 13.724987792968761 24.225000000000023 13.724987792968761 z"/>
 </g>
 <g>
  <title>Layer 3</title>
  <path id="imagebot_4" stroke-miterlimit="20" stroke-width="0.25" stroke="rgb(255, 255, 255)" fill="rgb(255, 255, 255)" d="M 24.225000000000023 23.72498779296876 L 0.8249999999999886 23.72498779296876 C 0.42500000000001137 23.72498779296876 0.125 23.42498779296875 0.125 23.024987792968773 L 0.125 21.824987792968727 C 0.125 21.42498779296875 0.42500000000001137 21.12498779296874 0.8249999999999886 21.12498779296874 L 24.225000000000023 21.12498779296874 C 24.625 21.12498779296874 24.92500000000001 21.42498779296875 24.92500000000001 21.824987792968727 L 24.92500000000001 23.024987792968773 C 25.024999999999977 23.42498779296875 24.625 23.72498779296876 24.225000000000023 23.72498779296876 z"/>
 </g>
</svg>